<svg width="48" height="48" viewBox="0 0 48 48" fill="none" xmlns="http://www.w3.org/2000/svg">
<circle cx="24" cy="24" r="24" fill="url(#paint0_linear_153_40)"/>
<path d="M30.4216 20.101C30.3048 20.101 30.2172 20.101 30.1004 20.101C30.334 19.4293 30.4508 18.6991 30.4508 17.969C30.48 14.3182 27.5302 11.3684 23.8795 11.3684C20.2288 11.3684 17.279 14.3182 17.279 17.969C17.279 18.7283 17.3958 19.4293 17.6294 20.101C17.5126 20.101 17.425 20.101 17.3082 20.101C13.6866 20.101 10.7368 23.0508 10.7368 26.7015C10.7368 30.3523 13.6866 33.3021 17.3374 33.3021C19.5862 33.3021 21.5722 32.1631 22.7697 30.4691L21.7475 36.6316H26.0115L24.9601 30.3815C26.1284 32.1631 28.1436 33.3313 30.4508 33.3313C34.0724 33.3021 37.0222 30.3523 37.0222 26.7015C37.0222 23.0508 34.0724 20.101 30.4216 20.101Z" fill="white"/>
<defs>
<linearGradient id="paint0_linear_153_40" x1="24" y1="0" x2="24" y2="48" gradientUnits="userSpaceOnUse">
<stop stop-color="#00D47F"/>
<stop offset="1" stop-color="#00BD71"/>
</linearGradient>
</defs>
</svg>
