<svg width="32" height="32" viewBox="0 0 32 32" fill="none" xmlns="http://www.w3.org/2000/svg">
<path d="M28 16C28 22.6274 22.6274 28 16 28C9.37258 28 4 22.6274 4 16C4 9.37258 9.37258 4 16 4C22.6274 4 28 9.37258 28 16Z" stroke="#ADADAD" stroke-width="2" stroke-linejoin="round"/>
<path d="M19.5411 11.6403L14.0684 13.1329C13.6129 13.2571 13.2571 13.6129 13.1329 14.0684L11.6403 19.5411C11.5046 20.0388 11.9612 20.4954 12.4589 20.3597L17.9316 18.8671C18.3871 18.7429 18.7429 18.3871 18.8671 17.9316L20.3597 12.4589C20.4954 11.9612 20.0388 11.5046 19.5411 11.6403Z" stroke="#ADADAD" stroke-width="2" stroke-linejoin="round"/>
</svg>
