<svg width="32" height="32" viewBox="0 0 32 32" fill="none" xmlns="http://www.w3.org/2000/svg">
<path d="M5.33627 6.66674C5.33627 5.93036 5.93323 5.33341 6.6696 5.33341L25.3363 5.33337C26.0726 5.33337 26.6696 5.93033 26.6696 6.66671V22.7144C26.6696 23.4508 26.0727 24.0477 25.3363 24.0477L20.5012 24.0477C20.1906 24.0477 19.8898 24.1562 19.6506 24.3543L15.9972 27.3811L12.3923 24.3592C12.1522 24.158 11.849 24.0477 11.5358 24.0477H6.66961C5.93323 24.0477 5.33627 23.4508 5.33627 22.7144V6.66674Z" stroke="black" stroke-width="2" stroke-linejoin="round"/>
<path d="M20.3351 14.2234C20.3351 16.9931 16.3613 19.0402 16 19.0402C15.6388 19.0402 11.6649 16.9931 11.6649 14.2234C11.6649 12.2967 12.8691 11.3334 14.0733 11.3334C15.2775 11.3334 16 12.0559 16 12.0559C16 12.0559 16.7225 11.3334 17.9267 11.3334C19.1309 11.3334 20.3351 12.2967 20.3351 14.2234Z" stroke="black" stroke-width="2" stroke-linejoin="round"/>
</svg>
