<svg width="32" height="32" viewBox="0 0 32 32" fill="none" xmlns="http://www.w3.org/2000/svg">
<path d="M8.15458 25.0804C9.9275 22.7924 12.6674 21.3333 16 21.3333C19.3326 21.3333 22.0725 22.7924 23.8454 25.0804M8.15458 25.0804C10.2582 26.8996 13.0006 28 16 28C18.9994 28 21.7418 26.8996 23.8454 25.0804M8.15458 25.0804C5.61003 22.88 4 19.628 4 16C4 9.37258 9.37258 4 16 4C22.6274 4 28 9.37258 28 16C28 19.628 26.39 22.88 23.8454 25.0804M20 13.3333C20 15.5425 18.2091 17.3333 16 17.3333C13.7909 17.3333 12 15.5425 12 13.3333C12 11.1242 13.7909 9.33333 16 9.33333C18.2091 9.33333 20 11.1242 20 13.3333Z" stroke="black" stroke-width="2" stroke-linejoin="round"/>
</svg>
