<svg width="19" height="24" viewBox="0 0 19 24" fill="none" xmlns="http://www.w3.org/2000/svg">
<path fill-rule="evenodd" clip-rule="evenodd" d="M15.0242 10.0095L15.0238 10.0105C16.0029 11.2382 16.5881 12.7932 16.5881 14.4845C16.5881 16.2009 15.9854 17.777 14.9798 19.013L14.8933 19.1195L14.8703 18.9842C14.8508 18.8692 14.8279 18.753 14.8012 18.636C14.2979 16.4249 12.6584 14.529 9.95982 12.9938C8.13753 11.96 7.09444 10.7151 6.82058 9.30073C6.64372 8.38612 6.77521 7.46746 7.02933 6.68061C7.28336 5.89402 7.66128 5.23497 7.98233 4.83819L9.03226 3.55433C9.21635 3.32923 9.56089 3.32923 9.74498 3.55433L15.0242 10.0095ZM16.6846 8.72703L9.64866 0.123201C9.51434 -0.0410671 9.26282 -0.0410672 9.12851 0.123201L2.09233 8.72664L2.06962 8.75554C0.774838 10.3622 0 12.4041 0 14.6268C0 19.8034 4.20332 24 9.38858 24C14.5739 24 18.7772 19.8034 18.7772 14.6268C18.7772 12.4041 18.0023 10.3622 16.7076 8.75554L16.6846 8.72703ZM3.77587 9.98178L4.4055 9.21188L4.42451 9.3539C4.43958 9.46649 4.45785 9.57961 4.47952 9.6932C4.88672 11.8297 6.34138 13.6112 8.77342 14.9909C10.8875 16.1941 12.1183 17.5777 12.4729 19.0951C12.6209 19.7284 12.6473 20.3514 12.5832 20.8961L12.5793 20.9299L12.5488 20.9448C11.5946 21.4109 10.522 21.6725 9.38835 21.6725C5.41221 21.6725 2.18872 18.4544 2.18872 14.4845C2.18872 12.78 2.78295 11.2139 3.77587 9.98178Z" fill="black"/>
</svg>
