<svg width="13" height="17" viewBox="0 0 13 17" fill="none" xmlns="http://www.w3.org/2000/svg">
<path fill-rule="evenodd" clip-rule="evenodd" d="M10.4017 6.9299L10.4014 6.93059C11.0793 7.78057 11.4844 8.85713 11.4844 10.0281C11.4844 11.2164 11.0672 12.3076 10.371 13.1633L10.3111 13.237L10.2952 13.1434C10.2816 13.0637 10.2658 12.9833 10.2473 12.9023C9.8989 11.3715 8.76376 10.0588 6.89549 8.996C5.63386 8.28025 4.9117 7.41837 4.7221 6.43918C4.59965 5.80596 4.69068 5.16995 4.86662 4.62519C5.04249 4.08061 5.30413 3.62433 5.52641 3.34963L6.25331 2.46077C6.38076 2.30492 6.61929 2.30492 6.74675 2.46077L10.4017 6.9299ZM11.5513 6.04199L6.68006 0.0852961C6.58707 -0.028432 6.41293 -0.0284321 6.31994 0.0852961L1.44858 6.04172L1.43286 6.06173C0.536444 7.17408 0 8.58771 0 10.1265C0 13.7105 2.91009 16.6159 6.5 16.6159C10.0899 16.6159 13 13.7105 13 10.1265C13 8.58771 12.4636 7.17408 11.5672 6.06173L11.5513 6.04199ZM2.61415 6.91069L3.05006 6.37767L3.06323 6.47599C3.07366 6.55394 3.0863 6.63226 3.10131 6.71089C3.38323 8.19009 4.39033 9.42344 6.0741 10.3787C7.53772 11.2117 8.38988 12.1695 8.6354 13.2201C8.73783 13.6586 8.75613 14.0899 8.71175 14.467L8.70903 14.4904L8.6879 14.5007C8.02731 14.8234 7.28473 15.0045 6.49984 15.0045C3.74704 15.0045 1.51532 12.7766 1.51532 10.0281C1.51532 8.848 1.92672 7.76371 2.61415 6.91069Z" fill="white"/>
</svg>
